<?xml version="1.0" standalone="no"?>
<!DOCTYPE svg PUBLIC "-//W3C//DTD SVG 20010904//EN"
 "http://www.w3.org/TR/2001/REC-SVG-20010904/DTD/svg10.dtd">
<svg version="1.0" xmlns="http://www.w3.org/2000/svg"
 width="256.000000pt" height="256.000000pt" viewBox="0 0 256.000000 256.000000"
 preserveAspectRatio="xMidYMid meet">
<metadata>
Created by potrace 1.11, written by Peter Selinger 2001-2013
</metadata>
<g transform="translate(0.000000,256.000000) scale(0.100000,-0.100000)"
fill="#000000" stroke="none">
<path d="M1155 2501 c-6 -11 9 -23 19 -14 9 9 7 23 -3 23 -6 0 -12 -4 -16 -9z"/>
<path d="M1200 2505 c0 -3 5 -14 10 -25 6 -11 15 -29 20 -40 7 -13 7 -20 0
-20 -5 0 -7 -7 -4 -15 4 -8 1 -15 -4 -15 -6 0 -12 -12 -14 -27 -2 -20 -8 -28
-20 -27 -10 1 -18 -2 -18 -6 0 -4 -12 -16 -27 -25 -25 -17 -26 -17 -19 0 5 15
4 16 -8 6 -8 -7 -19 -10 -25 -7 -13 8 -59 -13 -90 -41 -13 -13 -34 -23 -46
-23 -11 0 -30 -7 -41 -15 -32 -24 -47 -19 -28 10 16 25 16 25 -15 25 -44 0
-131 -61 -166 -116 -16 -26 -31 -41 -33 -36 -2 6 7 25 19 41 27 37 18 53 -14
24 -24 -22 -79 -41 -58 -20 17 17 13 29 -7 18 -10 -6 -28 -7 -40 -4 -16 4 -23
0 -28 -13 -3 -11 -10 -27 -15 -36 -5 -10 -9 -27 -9 -37 0 -11 -4 -23 -10 -26
-5 -3 -10 -11 -10 -16 0 -6 5 -7 12 -3 7 4 8 3 4 -5 -13 -21 3 -61 23 -61 11
0 22 -6 25 -12 5 -10 7 -10 12 0 10 21 24 2 19 -26 -3 -15 -2 -21 1 -14 3 6
10 9 15 6 6 -4 6 -11 -2 -20 -6 -7 -12 -35 -13 -60 -1 -54 -20 -71 -23 -22 -1
17 -7 34 -12 38 -6 3 -14 17 -20 30 l-10 25 -1 -25 c-1 -14 -1 -35 0 -47 1
-13 -4 -23 -11 -23 -7 0 -10 -3 -7 -6 3 -3 0 -27 -7 -55 -17 -62 2 -144 43
-187 44 -47 92 -105 92 -111 0 -4 -9 -15 -21 -24 -16 -14 -19 -25 -14 -50 10
-47 23 -55 22 -13 -1 45 12 60 44 48 26 -10 53 -83 69 -186 20 -125 63 -230
113 -272 15 -13 25 -29 22 -34 -10 -16 37 -73 79 -95 35 -19 52 -43 21 -31
-83 34 -38 4 120 -78 138 -72 221 -125 296 -187 l46 -38 40 77 c45 88 57 167
28 195 -15 16 -12 20 36 64 40 38 62 71 104 158 28 61 55 133 59 160 14 101
15 135 2 148 -7 7 -11 19 -9 27 3 8 -9 -6 -25 -31 -17 -25 -30 -52 -30 -60 3
-41 -3 -77 -15 -93 -12 -16 -14 -9 -13 53 l1 72 -42 40 c-24 22 -43 46 -43 52
0 8 -3 8 -11 0 -6 -6 -18 -9 -26 -6 -7 3 -23 -3 -33 -12 -11 -10 -23 -15 -26
-12 -4 4 -15 -5 -26 -18 -11 -14 -26 -25 -34 -25 -8 0 -14 -4 -14 -8 0 -12
-46 -32 -73 -32 -27 0 -87 -35 -87 -51 0 -10 114 -7 150 4 8 3 34 8 58 11 39
6 42 5 41 -16 0 -13 -3 -17 -6 -11 -5 15 -46 8 -78 -13 -11 -7 -60 -16 -109
-20 l-88 -6 7 32 c8 34 11 33 -52 15 -27 -7 -31 -51 -9 -100 14 -31 15 -30 31
20 4 14 8 14 32 2 37 -19 178 -33 168 -17 -4 6 -13 9 -21 6 -19 -7 -44 3 -44
19 0 18 13 21 105 24 44 2 83 5 88 8 4 2 7 0 7 -5 0 -6 -7 -12 -15 -16 -20 -7
-19 -26 1 -26 15 0 15 -2 2 -22 -17 -25 -63 -41 -138 -47 -9 -1 -16 -12 -16
-26 -2 -20 5 -27 35 -35 47 -14 158 18 153 44 -2 9 4 16 12 16 10 0 14 9 12
28 -3 33 21 85 37 79 13 -4 14 -65 2 -137 -7 -44 -41 -90 -66 -90 -6 0 -17 -6
-23 -14 -7 -9 -37 -16 -79 -19 -37 -3 -73 -9 -80 -14 -7 -5 -27 -8 -44 -7 -18
1 -33 -2 -33 -7 0 -15 -73 20 -96 46 -12 14 -24 22 -27 18 -4 -3 -13 0 -22 7
-10 8 -15 9 -15 1 0 -6 -16 -11 -36 -11 -32 0 -35 2 -30 23 3 12 3 16 0 10 -6
-13 -34 -18 -34 -7 0 3 10 14 23 25 19 16 19 18 5 19 -18 0 -26 20 -9 20 5 0
11 9 14 20 6 24 -15 27 -33 5 -7 -8 -16 -15 -19 -15 -9 0 -61 78 -61 91 0 5
-6 10 -12 10 -7 1 -20 2 -28 3 -10 1 -16 14 -18 39 -4 43 -22 51 -23 10 l0
-28 -11 25 c-6 14 -18 40 -26 59 -19 42 -20 211 -2 211 13 0 13 37 0 45 -15 9
-12 25 6 25 25 0 7 17 -26 23 -24 5 -30 12 -30 31 0 18 6 26 22 28 17 2 24 13
30 43 5 22 22 57 38 77 17 20 30 40 30 44 0 4 7 15 16 25 15 16 14 17 -7 12
-14 -4 -20 -2 -15 5 3 6 2 13 -4 17 -10 6 -7 45 5 65 3 5 0 10 -7 10 -10 0
-10 2 1 9 7 5 10 14 7 20 -8 13 13 22 109 46 115 29 166 34 209 19 22 -7 43
-11 47 -8 18 10 135 21 151 13 11 -6 18 -5 21 4 3 9 7 9 19 0 8 -7 25 -11 37
-8 12 2 34 0 49 -6 31 -11 82 -65 82 -85 0 -8 5 -14 11 -14 7 0 10 -12 7 -29
-2 -17 -1 -28 3 -25 4 2 16 -8 27 -23 36 -53 36 -53 -11 -47 -32 5 -55 2 -78
-10 -17 -9 -39 -16 -47 -16 -23 0 -99 -53 -111 -76 -5 -12 -7 -31 -4 -43 5
-18 1 -21 -28 -21 -47 0 -67 14 -43 29 15 8 16 12 6 19 -8 5 -13 13 -13 17 1
5 -6 10 -15 11 -9 2 -20 6 -23 11 -13 17 -79 31 -153 32 -63 0 -84 -4 -118
-23 -41 -23 -77 -62 -67 -73 3 -3 20 2 38 11 17 9 35 13 40 10 5 -3 9 0 9 5 0
20 134 6 134 -14 0 -5 -27 -13 -59 -17 -33 -4 -76 -12 -95 -17 -19 -6 -47 -13
-62 -16 -22 -4 -28 -11 -28 -33 0 -16 8 -32 20 -40 11 -7 20 -18 20 -26 0 -7
9 -21 21 -32 18 -16 40 -19 158 -22 101 -2 140 1 153 11 9 7 28 39 42 70 21
48 29 57 50 57 16 0 30 -8 37 -22 30 -57 82 -128 95 -128 8 0 11 6 8 15 -4 8
-1 15 4 15 36 0 172 24 198 35 23 9 35 24 44 52 7 21 16 42 21 48 17 18 10 53
-13 61 -18 5 -19 8 -6 15 35 19 32 286 -4 353 -7 14 -5 23 11 40 11 11 24 34
30 49 12 32 4 58 -11 36 -7 -11 -8 -11 -6 1 7 43 -32 113 -57 104 -7 -3 -21 8
-31 25 -26 40 -92 91 -109 84 -11 -4 -12 -10 -4 -24 14 -27 -4 -24 -32 6 -13
13 -31 25 -40 25 -9 0 -47 23 -85 51 -38 28 -76 54 -84 57 -8 3 -24 13 -35 22
-19 16 -85 35 -85 25z m90 -105 c0 -5 -2 -10 -4 -10 -3 0 -8 5 -11 10 -3 6 -1
10 4 10 6 0 11 -4 11 -10z m-135 -120 c3 -5 1 -10 -4 -10 -6 0 -11 5 -11 10 0
6 2 10 4 10 3 0 8 -4 11 -10z m-46 -46 c-12 -14 -7 -15 42 -10 29 4 62 9 73
12 15 5 13 -1 -10 -29 -27 -34 -69 -55 -83 -42 -3 4 3 11 13 17 28 16 1 27
-43 17 -64 -15 -80 -10 -39 11 20 11 40 24 43 30 3 5 9 10 12 10 3 0 0 -7 -8
-16z m-79 2 c0 -11 -19 -15 -25 -6 -3 5 1 10 9 10 9 0 16 -2 16 -4z m30 -76
c0 -5 -4 -10 -10 -10 -5 0 -10 5 -10 10 0 6 5 10 10 10 6 0 10 -4 10 -10z
m-480 -4 c0 -3 -4 -8 -10 -11 -5 -3 -10 -1 -10 4 0 6 5 11 10 11 6 0 10 -2 10
-4z m575 -16 c-3 -5 -11 -10 -16 -10 -6 0 -7 5 -4 10 3 6 11 10 16 10 6 0 7
-4 4 -10z m-555 -10 c0 -5 -5 -10 -11 -10 -5 0 -7 5 -4 10 3 6 8 10 11 10 2 0
4 -4 4 -10z m-30 -10 c0 -5 -4 -10 -10 -10 -5 0 -10 5 -10 10 0 6 5 10 10 10
6 0 10 -4 10 -10z m1185 -39 c-3 -6 -11 -11 -17 -11 -6 0 -6 6 2 15 14 17 26
13 15 -4z m-739 -18 c-7 -7 -26 7 -26 19 0 6 6 6 15 -2 9 -7 13 -15 11 -17z
m-377 -29 c-17 -21 -69 -47 -69 -35 0 15 74 73 78 61 2 -6 -2 -18 -9 -26z
m-79 1 c-7 -9 -15 -13 -17 -11 -7 7 7 26 19 26 6 0 6 -6 -2 -15z m70 -159 c0
-3 -4 -8 -10 -11 -5 -3 -10 -1 -10 4 0 6 5 11 10 11 6 0 10 -2 10 -4z m-70
-161 c0 -17 -2 -17 -10 -5 -5 8 -10 24 -10 35 0 17 2 17 10 5 5 -8 10 -24 10
-35z m1025 -44 c3 -6 -4 -9 -15 -8 -11 1 -20 5 -20 9 0 11 28 10 35 -1z m3
-78 c-2 -10 -11 -19 -20 -21 -12 -2 -15 2 -11 17 7 25 36 28 31 4z m133 -81
c-7 -13 -29 -23 -68 -30 -96 -19 -190 -25 -198 -13 -4 7 13 11 50 11 59 0 126
26 143 56 6 11 16 15 26 11 10 -4 14 -12 10 -18 -4 -8 -3 -9 4 -5 7 4 12 11
12 16 0 5 5 21 12 37 l12 28 4 -37 c2 -20 -1 -46 -7 -56z m-577 62 c13 -5 14
-9 5 -20 -17 -21 -38 -17 -32 6 6 23 5 22 27 14z m146 -4 c13 -9 13 -10 0 -10
-32 0 -40 -21 -22 -52 36 -61 -24 -83 -193 -74 -107 7 -125 16 -125 62 0 20 5
23 66 26 86 4 111 -5 65 -24 -24 -11 -29 -17 -18 -21 24 -9 71 0 127 24 42 18
49 25 44 42 -4 13 -2 17 5 13 6 -4 11 0 11 8 0 18 18 20 40 6z m-250 -30 c0
-5 -7 -7 -15 -4 -8 4 -12 10 -9 15 6 11 24 2 24 -11z m494 -234 c-3 -8 4 -16
18 -21 21 -6 21 -8 4 -12 -11 -3 -27 4 -39 16 -19 19 -20 21 -4 21 11 0 15 4
11 12 -4 7 -3 8 4 4 6 -4 9 -13 6 -20z m-264 -181 c0 -8 -7 -15 -15 -15 -8 0
-15 7 -15 15 0 8 7 15 15 15 8 0 15 -7 15 -15z"/>
<path d="M1108 2478 c9 -9 15 -9 24 0 9 9 7 12 -12 12 -19 0 -21 -3 -12 -12z"/>
<path d="M1066 2374 c-10 -25 1 -29 14 -5 6 12 7 21 1 21 -5 0 -12 -7 -15 -16z"/>
<path d="M957 2365 c-16 -12 -16 -13 5 -18 27 -7 32 -3 21 16 -7 13 -11 13
-26 2z"/>
<path d="M745 2330 c-10 -11 -15 -20 -11 -20 4 0 19 9 33 20 17 13 20 20 11
20 -8 0 -23 -9 -33 -20z"/>
<path d="M754 2275 c-10 -8 -14 -15 -8 -15 6 0 17 7 24 15 16 19 9 19 -16 0z"/>
<path d="M675 2269 c-29 -8 -55 -33 -55 -52 0 -5 15 1 34 12 18 12 40 21 49
21 8 0 17 7 21 15 6 17 -4 18 -49 4z"/>
<path d="M490 1825 c0 -23 -3 -27 -10 -15 -8 12 -10 10 -9 -10 0 -14 4 -34 9
-45 8 -18 9 -17 9 8 1 16 6 38 12 49 8 14 8 23 0 31 -8 8 -11 3 -11 -18z"/>
<path d="M535 1520 c-3 -6 1 -7 9 -4 18 7 21 14 7 14 -6 0 -13 -4 -16 -10z"/>
<path d="M1690 1400 c0 -11 5 -20 10 -20 6 0 10 9 10 20 0 11 -4 20 -10 20 -5
0 -10 -9 -10 -20z"/>
<path d="M1253 1324 c-18 -9 -30 -20 -27 -25 8 -13 44 -11 44 2 0 6 7 8 16 5
21 -8 98 5 87 14 -19 18 -88 20 -120 4z"/>
<path d="M675 1320 c3 -5 11 -10 16 -10 6 0 7 5 4 10 -3 6 -11 10 -16 10 -6 0
-7 -4 -4 -10z"/>
<path d="M1103 1233 c-3 -10 -8 -22 -10 -28 -3 -5 3 -1 11 9 16 20 21 36 11
36 -3 0 -8 -8 -12 -17z"/>
<path d="M695 1103 c1 -57 17 -85 36 -66 8 8 9 30 5 67 -6 43 -11 54 -24 53
-14 -1 -17 -11 -17 -54z"/>
<path d="M1370 1100 c-11 -7 -7 -10 18 -10 20 0 31 4 27 10 -8 13 -26 13 -45
0z"/>
<path d="M940 1060 c0 -5 5 -10 11 -10 5 0 7 5 4 10 -3 6 -8 10 -11 10 -2 0
-4 -4 -4 -10z"/>
<path d="M1449 480 c-25 -13 -56 -49 -108 -129 l-72 -111 -72 48 c-92 62 -102
67 -94 55 6 -10 37 -31 131 -91 52 -33 79 -41 71 -19 -3 6 0 19 5 27 8 12 19
5 65 -40 55 -55 68 -80 80 -158 7 -47 11 -48 85 -31 137 31 136 30 96 115 -34
74 -42 129 -21 150 13 14 15 27 10 62 -5 35 -4 43 7 36 32 -19 -42 52 -81 77
-52 34 -55 34 -102 9z"/>
</g>
</svg>
